{"glyphs":{":":{"x_min":0,"x_max":500,"ha":500,"o":""},"$":{"x_min":0,"x_max":500,"ha":500,"o":"m 193 9 q 130 15 92 29 q 53 43 34 54 l 72 152 q 104 137 147 124 q 190 112 238 112 q 294 112 316 126 q 338 141 338 172 q 338 190 330 203 q 321 216 304 226 q 288 237 264 246 q 240 254 210 265 q 181 275 153 288 q 125 301 103 320 q 81 338 68 364 q 54 391 54 430 q 54 458 62 484 q 69 510 86 532 q 102 554 129 570 q 156 587 195 596 l 195 693 l 309 693 l 309 601 q 355 597 390 587 q 426 577 446 569 l 418 466 q 389 478 350 488 q 310 497 268 497 q 220 497 202 480 q 183 463 183 440 q 183 424 190 414 q 196 403 210 395 q 223 387 242 380 q 261 372 287 363 q 326 348 359 332 q 392 315 416 294 q 440 272 454 243 q 467 214 467 175 q 467 148 459 122 q 451 95 432 72 q 414 50 384 34 q 353 17 307 10 l 307 -97 l 193 -97 z"},"?":{"x_min":0,"x_max":500,"ha":500,"o":"m 166 225 q 165 230 165 240 q 165 280 186 316 q 207 353 241 381 q 264 400 284 422 q 304 443 304 468 q 304 498 283 514 q 262 529 230 529 q 198 529 168 520 q 138 510 103 493 l 69 587 q 104 609 151 621 q 198 633 244 633 q 301 633 338 618 q 375 602 396 579 q 417 556 426 528 q 434 501 434 476 q 434 447 422 423 q 411 399 394 378 q 376 357 356 338 q 336 320 318 302 q 301 284 290 265 q 278 246 278 225 z m 313 71 q 313 32 288 10 q 262 -12 230 -12 q 214 -12 199 -6 q 184 -1 172 10 q 160 21 153 36 q 146 51 146 71 q 146 90 153 106 q 160 121 172 132 q 184 142 199 148 q 214 153 230 153 q 246 153 261 148 q 276 142 288 132 q 299 121 306 106 q 313 90 313 71 z"},"<":{"x_min":0,"x_max":500,"ha":500,"o":"m 45 313 l 429 474 l 463 366 l 183 257 l 463 148 l 429 40 l 45 202 z"},"'":{"x_min":0,"x_max":500,"ha":500,"o":"m 317 679 l 317 613 q 317 588 314 558 q 312 529 308 498 q 303 467 298 436 q 293 406 288 380 l 216 380 q 211 406 206 436 q 201 467 196 498 q 192 529 189 558 q 186 588 186 613 l 186 679 z"},"=":{"x_min":0,"x_max":500,"ha":500,"o":"m 40 411 l 460 411 l 460 309 l 40 309 z m 40 216 l 460 216 l 460 114 l 40 114 z"},"a":{"x_min":0,"x_max":500,"ha":500,"o":"m 251 88 q 271 88 290 88 q 309 89 323 91 l 323 199 q 311 201 294 202 q 277 204 263 204 q 244 204 226 202 q 208 199 194 193 q 181 187 173 176 q 165 165 165 147 q 165 115 189 102 q 213 88 251 88 z m 240 482 q 298 482 336 468 q 375 455 398 430 q 421 406 431 370 q 441 335 441 291 l 441 11 q 414 5 361 -3 q 308 -11 242 -11 q 197 -11 160 -3 q 124 5 98 24 q 72 42 58 72 q 44 101 44 144 q 44 185 60 213 q 76 241 103 258 q 130 275 165 282 q 200 290 238 290 q 286 290 323 282 l 323 297 q 323 332 301 356 q 279 379 225 379 q 190 379 158 374 q 125 369 105 362 l 88 461 q 111 469 153 476 q 195 482 240 482 z"},"L":{"x_min":0,"x_max":500,"ha":500,"o":"m 460 0 l 71 0 l 71 619 l 195 619 l 195 102 l 460 102 z"},"3":{"x_min":0,"x_max":500,"ha":500,"o":"m 213 -13 q 190 -13 164 -10 q 139 -6 116 -1 q 92 4 72 10 q 52 16 41 21 l 65 124 q 88 114 124 103 q 161 92 212 92 q 275 92 300 119 q 326 146 326 186 q 326 235 287 254 q 248 274 188 274 l 150 274 l 150 376 l 196 376 q 215 376 234 380 q 253 384 268 393 q 283 402 292 417 q 302 432 302 455 q 302 489 282 508 q 261 528 225 528 q 190 528 156 516 q 121 505 96 488 l 52 578 q 79 596 124 614 q 168 633 224 633 q 276 633 314 620 q 353 607 378 584 q 403 560 415 528 q 427 496 427 459 q 427 422 406 388 q 385 354 350 336 q 398 316 424 277 q 451 238 451 184 q 451 141 437 105 q 423 69 394 42 q 365 16 320 2 q 275 -13 213 -13 z"},";":{"x_min":0,"x_max":500,"ha":500,"o":""},"J":{"x_min":0,"x_max":500,"ha":500,"o":"m 438 207 q 438 162 426 122 q 415 82 388 52 q 362 22 320 4 q 278 -13 218 -13 q 155 -13 113 3 q 71 19 42 42 l 89 140 q 114 124 144 109 q 175 94 207 94 q 255 94 284 120 q 314 145 314 214 l 314 517 l 107 517 l 107 619 l 438 619 z"},"V":{"x_min":0,"x_max":500,"ha":500,"o":"m 186 0 q 162 69 135 156 q 108 243 84 330 q 60 416 41 493 q 22 570 13 619 l 143 619 q 149 571 161 508 q 173 444 188 376 q 202 309 218 244 q 235 178 251 126 q 267 177 283 242 q 299 308 313 376 q 327 443 339 507 q 351 571 359 619 l 488 619 q 476 559 458 485 q 441 411 418 330 q 396 248 369 164 q 342 79 313 0 z"},"\"":{"x_min":0,"x_max":500,"ha":500,"o":"m 415 679 l 415 630 q 415 605 412 576 q 410 546 406 515 q 401 484 396 454 q 391 424 386 398 l 314 398 q 309 424 304 454 q 299 484 294 515 q 290 546 287 576 q 284 606 284 631 l 284 679 z m 218 679 l 218 630 q 218 605 216 576 q 213 546 208 515 q 204 484 198 454 q 193 424 188 398 l 117 398 q 112 424 107 454 q 102 484 98 515 q 93 546 90 576 q 87 606 87 631 l 87 679 z"},"7":{"x_min":0,"x_max":500,"ha":500,"o":"m 132 0 q 135 64 153 136 q 171 207 196 277 q 222 347 252 410 q 282 472 309 517 l 49 517 l 49 619 l 453 619 l 453 526 q 426 495 394 439 q 362 383 334 312 q 305 241 284 160 q 262 80 257 0 z"},"S":{"x_min":0,"x_max":500,"ha":500,"o":"m 232 90 q 263 90 284 96 q 304 103 316 114 q 328 126 332 140 q 337 155 337 170 q 337 189 326 204 q 315 219 298 230 q 281 242 260 252 q 239 261 218 269 q 190 279 160 292 q 130 305 106 325 q 81 345 65 374 q 49 404 49 448 q 49 535 106 584 q 162 633 261 633 q 318 633 360 620 q 403 607 432 591 l 396 496 q 371 510 340 520 q 310 530 270 530 q 172 530 172 459 q 172 441 182 428 q 192 414 208 404 q 223 393 242 385 q 262 377 281 370 q 310 359 342 346 q 373 332 400 310 q 426 287 443 254 q 460 220 460 169 q 460 82 404 34 q 347 -13 232 -13 q 155 -13 109 4 q 63 20 40 34 l 76 134 q 103 118 140 104 q 178 90 232 90 z"},"}":{"x_min":0,"x_max":500,"ha":500,"o":"m 313 268 q 259 278 235 312 q 211 346 211 410 l 211 523 q 211 565 199 584 q 187 603 155 603 l 63 603 l 63 699 l 166 699 q 211 699 242 689 q 272 679 290 660 q 309 641 317 612 q 325 584 325 547 l 325 400 q 325 358 338 336 q 351 315 382 315 l 437 315 l 437 219 l 382 219 q 351 219 338 198 q 325 176 325 135 l 325 -13 q 325 -50 317 -78 q 309 -107 290 -126 q 272 -145 242 -155 q 211 -165 166 -165 l 63 -165 l 63 -69 l 155 -69 q 187 -69 199 -50 q 211 -32 211 11 l 211 124 q 211 188 235 222 q 259 256 313 268 z"},"Z":{"x_min":0,"x_max":500,"ha":500,"o":"m 445 533 q 402 467 366 409 q 330 351 299 298 q 268 246 240 198 q 213 149 188 102 l 454 102 l 454 0 l 46 0 l 46 71 q 68 114 93 162 q 118 209 149 263 q 180 317 216 380 q 253 443 297 517 l 59 517 l 59 619 l 445 619 z"},"x":{"x_min":0,"x_max":500,"ha":500,"o":"m 254 323 l 350 470 l 475 470 l 323 244 q 347 215 370 182 q 393 150 414 117 q 435 84 452 54 q 469 24 481 0 l 353 0 q 326 51 299 91 q 272 131 248 163 q 218 123 194 85 q 170 47 145 0 l 20 0 q 35 28 54 58 q 74 89 96 120 q 117 152 140 183 q 164 214 186 242 l 21 470 l 150 470 z"},")":{"x_min":0,"x_max":500,"ha":500,"o":"m 294 266 q 294 390 238 484 q 181 578 85 634 l 142 710 q 278 635 343 520 q 408 404 408 266 q 408 129 345 17 q 282 -95 146 -170 l 89 -94 q 185 -38 240 52 q 294 143 294 266 z"},"&":{"x_min":0,"x_max":500,"ha":500,"o":"m 365 0 q 354 29 341 53 q 307 23 271 8 q 235 -8 200 -8 q 155 -8 122 6 q 88 20 66 44 q 43 67 32 98 q 21 129 21 163 q 21 211 46 254 q 70 298 119 328 q 95 361 80 397 q 64 433 64 472 q 64 512 78 542 q 92 573 115 593 q 138 613 166 623 q 195 633 225 633 q 253 633 280 624 q 307 615 328 598 q 349 580 362 554 q 375 527 375 492 q 375 444 346 398 q 317 353 255 321 q 275 297 297 272 q 319 247 342 221 q 356 272 357 342 l 459 329 q 458 273 444 225 q 431 177 410 138 q 434 105 453 70 q 472 35 482 0 z m 292 125 q 264 160 234 193 q 204 226 175 258 q 153 243 140 222 q 126 200 126 169 q 126 135 144 110 q 161 85 203 85 q 226 85 249 94 q 272 103 292 125 z m 170 478 q 170 456 179 434 q 188 411 204 387 q 236 405 253 434 q 270 464 270 491 q 270 517 258 530 q 245 544 225 544 q 200 544 185 527 q 170 510 170 478 z"},"_":{"x_min":0,"x_max":500,"ha":500,"o":"m 8 -58 l 492 -58 l 492 -165 l 8 -165 z"},"v":{"x_min":0,"x_max":500,"ha":500,"o":"m 194 0 q 149 89 102 208 q 56 328 14 470 l 143 470 q 152 432 164 389 q 177 346 191 302 q 205 259 220 218 q 234 177 247 143 q 260 177 276 218 q 292 259 308 302 q 323 346 338 389 q 352 432 361 470 l 486 470 q 444 328 393 208 q 342 89 297 0 z"},"O":{"x_min":0,"x_max":500,"ha":500,"o":"m 152 310 q 152 265 156 226 q 159 186 170 157 q 180 128 199 111 q 218 94 250 94 q 281 94 300 111 q 320 128 330 158 q 341 187 344 226 q 348 265 348 310 q 348 355 344 394 q 341 434 330 463 q 320 492 301 509 q 282 526 250 526 q 218 526 199 509 q 180 492 170 462 q 159 433 156 394 q 152 355 152 310 z m 27 310 q 27 470 86 552 q 145 633 250 633 q 359 633 416 552 q 473 470 473 310 q 473 150 415 68 q 357 -13 251 -13 q 142 -13 84 68 q 27 150 27 310 z"},"(":{"x_min":0,"x_max":500,"ha":500,"o":"m 208 266 q 208 143 262 52 q 317 -38 413 -94 l 356 -170 q 220 -95 157 17 q 94 129 94 266 q 94 404 159 520 q 224 635 360 710 l 417 634 q 321 578 264 484 q 208 390 208 266 z"},"C":{"x_min":0,"x_max":500,"ha":500,"o":"m 296 -13 q 165 -13 96 71 q 27 155 27 310 q 27 387 48 447 q 69 507 106 548 q 144 590 196 612 q 247 633 308 633 q 341 633 368 628 q 394 622 414 615 q 434 608 448 600 q 461 592 468 588 l 436 490 q 413 505 380 516 q 348 526 306 526 q 277 526 250 516 q 222 505 200 480 q 179 456 166 415 q 152 374 152 313 q 152 207 188 150 q 225 94 308 94 q 356 94 388 105 q 419 116 438 127 l 469 30 q 443 14 398 0 q 354 -13 296 -13 z"},"W":{"x_min":0,"x_max":500,"ha":500,"o":"m 296 400 q 300 381 308 353 q 316 325 326 291 q 335 257 346 218 q 358 179 369 138 q 369 190 368 250 q 367 309 366 371 q 365 433 364 496 q 363 560 363 619 l 477 619 q 474 543 471 462 q 468 382 464 302 q 460 223 454 146 q 449 69 442 0 l 340 0 q 318 63 296 136 q 274 208 252 274 q 230 211 206 137 q 182 63 162 0 l 60 0 q 52 69 46 146 q 40 224 36 304 q 31 383 28 464 q 25 544 23 619 l 137 619 q 136 560 135 497 q 134 434 133 372 q 132 309 131 250 q 130 190 130 138 q 139 170 150 208 q 162 246 172 283 q 183 320 192 351 q 201 382 206 400 z"},"A":{"x_min":0,"x_max":500,"ha":500,"o":"m 359 0 l 330 143 l 165 143 l 137 0 l 9 0 q 53 183 98 334 q 143 484 185 619 l 319 619 q 363 483 406 330 q 450 178 491 0 z m 249 499 q 239 464 230 432 q 222 401 214 370 q 207 340 200 309 q 194 278 188 245 l 309 245 q 303 278 297 309 q 291 340 284 370 q 276 401 268 432 q 259 464 249 499 z"},"f":{"x_min":0,"x_max":500,"ha":500,"o":"m 139 0 l 139 368 l 36 368 l 36 470 l 139 470 l 139 497 q 139 554 156 592 q 172 629 200 652 q 228 674 264 684 q 300 693 338 693 q 377 693 418 686 q 459 679 492 663 l 471 563 q 448 571 414 580 q 379 588 348 588 q 331 588 316 585 q 300 582 288 572 q 277 562 270 544 q 263 525 263 495 l 263 470 l 456 470 l 456 368 l 263 368 l 263 0 z"},"Q":{"x_min":0,"x_max":500,"ha":500,"o":"m 27 307 q 27 467 86 548 q 145 630 250 630 q 359 630 416 548 q 473 467 473 307 q 473 167 428 86 q 383 6 298 -11 q 309 -36 352 -52 q 394 -69 468 -82 l 442 -170 q 325 -154 266 -116 q 206 -79 195 -9 q 114 11 70 90 q 27 170 27 307 z m 152 307 q 152 262 156 223 q 159 184 170 154 q 180 125 199 108 q 218 91 250 91 q 281 91 300 108 q 320 125 330 154 q 341 184 344 223 q 348 262 348 307 q 348 352 344 392 q 341 431 330 460 q 320 489 301 506 q 282 523 250 523 q 218 523 199 506 q 180 489 170 460 q 159 430 156 391 q 152 352 152 307 z"},"w":{"x_min":0,"x_max":500,"ha":500,"o":"m 322 0 q 311 31 302 57 q 292 83 284 108 q 275 132 266 158 q 258 185 249 217 q 239 185 231 160 q 223 134 214 109 q 206 84 197 58 q 188 32 175 0 l 82 0 q 70 44 60 98 q 49 151 40 212 q 31 272 24 337 q 17 402 11 470 l 116 470 q 120 383 124 300 q 129 217 141 129 q 154 167 164 200 q 173 232 180 262 q 188 291 194 318 q 201 346 208 375 l 297 375 q 303 346 310 318 q 316 291 324 262 q 331 232 340 200 q 348 167 360 129 q 366 175 370 217 q 374 259 376 300 q 379 342 380 384 q 382 425 384 470 l 489 470 q 478 333 458 212 q 439 91 415 0 z"},"-":{"x_min":0,"x_max":500,"ha":500,"o":"m 113 317 l 387 317 l 387 196 l 113 196 z"},"E":{"x_min":0,"x_max":500,"ha":500,"o":"m 63 0 l 63 619 l 438 619 l 438 517 l 186 517 l 186 378 l 405 378 l 405 276 l 186 276 l 186 102 l 460 102 l 460 0 z"},"s":{"x_min":0,"x_max":500,"ha":500,"o":"m 228 93 q 273 93 297 100 q 321 106 321 126 q 321 139 314 148 q 306 157 292 164 q 279 170 262 176 q 244 182 225 188 q 198 196 170 206 q 142 217 119 233 q 96 249 81 274 q 66 298 66 335 q 66 365 78 392 q 89 418 114 438 q 138 459 176 470 q 214 482 267 482 q 313 482 352 475 q 392 468 421 455 l 402 351 q 385 356 349 368 q 313 379 268 379 q 221 379 204 368 q 188 356 188 343 q 188 332 196 324 q 203 315 216 308 q 228 301 244 294 q 261 288 280 282 q 307 273 336 262 q 365 251 388 234 q 412 218 427 192 q 442 167 442 130 q 442 101 431 75 q 420 49 394 30 q 369 11 328 0 q 287 -11 227 -11 q 166 -11 123 3 q 80 17 54 28 l 73 131 q 108 117 148 105 q 187 93 228 93 z"},">":{"x_min":0,"x_max":500,"ha":500,"o":"m 459 201 l 75 39 l 40 147 l 321 256 l 40 365 l 75 473 l 459 312 z"},"l":{"x_min":0,"x_max":500,"ha":500,"o":"m 467 20 q 464 18 454 13 q 443 8 426 2 q 409 -3 384 -7 q 360 -11 329 -11 q 244 -11 205 40 q 166 90 166 187 l 166 586 l 36 586 l 36 688 l 289 688 l 289 178 q 289 130 308 113 q 327 96 356 96 q 393 96 418 106 q 443 116 451 119 z"},"8":{"x_min":0,"x_max":500,"ha":500,"o":"m 446 472 q 446 429 425 388 q 404 346 359 318 q 416 285 440 246 q 463 207 463 160 q 463 130 452 99 q 440 68 414 44 q 389 19 348 3 q 307 -13 247 -13 q 200 -13 162 -2 q 123 10 96 32 q 68 53 53 84 q 38 116 38 155 q 38 202 60 244 q 82 285 129 317 q 85 347 69 381 q 53 415 53 453 q 53 483 64 516 q 74 548 97 574 q 120 600 158 617 q 196 634 252 634 q 341 634 394 590 q 446 546 446 472 z m 347 162 q 347 182 340 197 q 332 212 316 224 q 299 237 273 250 q 247 262 211 276 q 183 253 168 224 q 153 196 153 170 q 153 130 182 110 q 210 89 249 89 q 294 89 320 110 q 347 132 347 162 z m 250 532 q 218 532 194 514 q 169 496 169 461 q 169 426 192 404 q 215 382 273 358 q 304 381 317 408 q 330 436 330 462 q 330 497 306 514 q 283 532 250 532 z"},"\\":{"x_min":0,"x_max":500,"ha":500,"o":"m 49 699 l 175 699 l 455 -165 l 328 -165 z"},"e":{"x_min":0,"x_max":500,"ha":500,"o":"m 31 231 q 31 293 50 340 q 69 387 100 418 q 131 450 171 466 q 211 482 253 482 q 357 482 411 420 q 465 359 465 241 q 465 229 464 216 q 464 203 463 195 l 158 195 q 158 149 196 122 q 234 96 294 96 q 331 96 364 104 q 398 112 421 120 l 438 15 q 406 4 370 -4 q 334 -11 289 -11 q 229 -11 182 4 q 134 20 100 50 q 67 81 49 126 q 31 171 31 231 z m 346 280 q 346 299 341 316 q 336 334 325 348 q 314 362 297 370 q 280 379 255 379 q 231 379 214 371 q 196 363 184 349 q 173 335 166 317 q 160 299 158 280 z"},"b":{"x_min":0,"x_max":500,"ha":500,"o":"m 345 238 q 345 304 324 339 q 302 374 258 374 q 238 374 218 368 q 199 363 185 355 l 185 100 q 199 97 214 96 q 230 95 241 95 q 289 95 317 128 q 345 160 345 238 z m 470 235 q 470 179 455 134 q 440 88 411 56 q 382 24 340 6 q 298 -11 244 -11 q 196 -11 146 -4 q 96 3 62 14 l 62 673 l 185 694 l 185 459 q 211 471 235 476 q 259 480 283 480 q 329 480 364 462 q 399 445 422 412 q 446 380 458 335 q 470 290 470 235 z"},"%":{"x_min":0,"x_max":500,"ha":500,"o":"m 91 0 l 2 0 l 409 619 l 498 619 z m 265 142 q 265 218 295 258 q 325 297 377 297 q 430 297 460 258 q 490 218 490 142 q 490 66 460 26 q 430 -13 377 -13 q 325 -13 295 26 q 265 66 265 142 z m 410 142 q 410 184 400 202 q 390 220 376 220 q 362 220 354 202 q 345 184 345 142 q 345 100 354 83 q 362 66 376 66 q 390 66 400 83 q 410 100 410 142 z m 10 478 q 10 554 40 594 q 70 633 121 633 q 175 633 205 594 q 235 554 235 478 q 235 402 205 362 q 175 322 121 322 q 70 322 40 362 q 10 402 10 478 z m 154 478 q 154 520 144 538 q 134 555 121 555 q 107 555 98 538 q 89 520 89 478 q 89 436 98 419 q 107 402 121 402 q 134 402 144 419 q 154 436 154 478 z"},"m":{"x_min":0,"x_max":500,"ha":500,"o":"m 343 475 q 382 475 407 463 q 432 451 446 427 q 461 403 466 366 q 471 330 471 281 l 471 0 l 371 0 l 371 287 q 371 315 368 332 q 364 349 358 358 q 353 367 346 370 q 338 373 330 373 q 321 373 311 372 q 301 370 293 366 q 296 347 298 324 q 300 301 300 273 l 300 179 l 200 179 l 200 287 q 200 335 190 354 q 181 373 160 373 q 154 373 146 372 q 137 371 129 369 l 129 0 l 29 0 l 29 452 q 68 463 106 469 q 144 475 173 475 q 199 475 220 468 q 240 462 255 447 q 272 458 295 466 q 318 475 343 475 z"},"#":{"x_min":0,"x_max":500,"ha":500,"o":"m 138 467 l 167 619 l 269 619 l 239 467 l 319 467 l 348 619 l 450 619 l 421 467 l 483 467 l 483 365 l 401 365 l 380 255 l 483 255 l 483 153 l 361 153 l 332 0 l 230 0 l 259 153 l 179 153 l 151 0 l 49 0 l 78 153 l 18 153 l 18 255 l 97 255 l 118 365 l 18 365 l 18 467 z m 199 255 l 279 255 l 299 365 l 220 365 z"},",":{"x_min":0,"x_max":500,"ha":500,"o":"m 126 -73 q 144 -69 162 -66 q 181 -63 198 -57 q 214 -51 227 -40 q 240 -29 248 -10 q 210 -6 189 20 q 168 46 168 78 q 168 117 194 142 q 219 167 258 167 q 300 167 324 139 q 347 111 347 63 q 347 28 336 -7 q 325 -42 300 -72 q 276 -102 237 -124 q 198 -146 142 -153 z"},"n":{"x_min":0,"x_max":500,"ha":500,"o":"m 63 455 q 96 464 144 472 q 193 480 250 480 q 306 480 343 464 q 380 449 402 420 q 423 392 432 352 q 441 313 441 265 l 441 0 l 318 0 l 318 249 q 318 315 303 344 q 288 373 242 373 q 228 373 214 372 q 201 371 186 369 l 186 0 l 63 0 z"},"h":{"x_min":0,"x_max":500,"ha":500,"o":"m 63 0 l 63 673 l 186 694 l 186 466 q 201 471 222 476 q 243 480 259 480 q 311 480 346 464 q 381 449 402 420 q 423 392 432 352 q 441 313 441 265 l 441 0 l 318 0 l 318 249 q 318 315 303 344 q 288 373 246 373 q 229 373 212 369 q 196 365 186 362 l 186 0 z"},"z":{"x_min":0,"x_max":500,"ha":500,"o":"m 426 380 q 412 364 386 332 q 360 301 330 262 q 299 223 268 180 q 238 138 214 102 l 436 102 l 436 0 l 67 0 l 67 75 q 90 113 117 153 q 144 193 171 232 q 198 270 224 305 q 250 340 271 368 l 77 368 l 77 470 l 426 470 z"},"B":{"x_min":0,"x_max":500,"ha":500,"o":"m 469 187 q 469 131 450 94 q 431 56 398 34 q 366 11 322 2 q 277 -8 226 -8 q 185 -8 141 -4 q 97 1 54 10 l 54 611 q 89 617 131 622 q 173 626 214 626 q 284 626 328 612 q 372 597 397 574 q 422 550 431 521 q 440 492 440 463 q 440 419 418 385 q 397 351 361 331 q 424 308 446 269 q 469 230 469 187 z m 177 271 l 177 103 q 190 101 206 100 q 221 99 236 99 q 257 99 277 102 q 297 106 312 116 q 328 125 338 142 q 348 160 348 187 q 348 232 320 252 q 291 271 243 271 z m 225 373 q 272 373 296 394 q 320 414 320 450 q 320 472 313 486 q 306 499 294 506 q 282 514 266 516 q 250 519 233 519 q 219 519 204 518 q 189 517 177 515 l 177 373 z"},"K":{"x_min":0,"x_max":500,"ha":500,"o":"m 350 0 q 339 35 318 76 q 298 116 273 154 q 248 193 220 226 q 193 260 168 283 l 168 0 l 45 0 l 45 619 l 168 619 l 168 362 q 190 390 214 424 q 238 458 260 492 q 281 526 299 559 q 317 592 329 619 l 468 619 q 454 592 434 558 q 415 523 390 486 q 365 448 336 409 q 308 370 277 334 q 308 304 340 265 q 372 226 400 182 q 429 137 452 90 q 475 44 489 0 z"},"R":{"x_min":0,"x_max":500,"ha":500,"o":"m 214 626 q 267 626 310 614 q 353 602 384 577 q 415 552 432 514 q 448 475 448 423 q 448 369 426 325 q 404 281 353 258 q 370 232 389 200 q 408 169 426 134 q 444 100 460 66 q 477 31 489 0 l 360 0 q 337 60 306 116 q 276 171 241 228 l 177 228 l 177 0 l 54 0 l 54 610 q 72 614 94 618 q 115 621 137 622 q 159 624 179 625 q 199 626 214 626 z m 323 424 q 323 473 293 496 q 263 519 214 519 q 207 519 197 518 q 187 518 177 516 l 177 330 l 204 330 q 267 330 295 354 q 323 379 323 424 z"},"T":{"x_min":0,"x_max":500,"ha":500,"o":"m 475 619 l 475 517 l 312 517 l 312 0 l 188 0 l 188 517 l 25 517 l 25 619 z"},"P":{"x_min":0,"x_max":500,"ha":500,"o":"m 224 626 q 342 626 407 578 q 472 529 472 419 q 472 308 406 258 q 341 209 221 209 l 177 209 l 177 0 l 54 0 l 54 611 q 72 615 94 618 q 117 621 140 622 q 163 624 185 625 q 207 626 224 626 z m 238 519 q 227 519 208 518 q 188 518 177 516 l 177 316 l 227 316 q 286 316 316 340 q 346 363 346 420 q 346 474 316 496 q 287 519 238 519 z"},"|":{"x_min":0,"x_max":500,"ha":500,"o":"m 189 699 l 313 699 l 313 -165 l 189 -165 z"},"t":{"x_min":0,"x_max":500,"ha":500,"o":"m 143 368 l 36 368 l 36 470 l 143 470 l 143 588 l 266 608 l 266 470 l 463 470 l 463 368 l 266 368 l 266 178 q 266 152 271 136 q 276 120 285 111 q 294 102 307 99 q 320 96 336 96 q 353 96 368 97 q 382 98 396 100 q 409 103 424 108 q 438 113 455 121 l 472 15 q 438 1 398 -5 q 359 -11 322 -11 q 279 -11 246 -4 q 213 3 190 23 q 167 43 155 80 q 143 116 143 175 z"},"M":{"x_min":0,"x_max":500,"ha":500,"o":"m 161 619 q 168 598 178 565 q 189 532 201 494 q 213 456 225 417 q 237 378 248 345 q 260 382 273 422 q 286 461 298 498 q 310 534 320 566 q 330 598 338 619 l 440 619 q 447 538 454 461 q 460 384 464 308 q 469 233 472 156 q 475 80 477 0 l 364 0 l 370 481 l 294 219 l 204 219 l 131 481 l 136 0 l 23 0 q 26 76 30 158 q 33 240 37 321 q 41 402 46 478 q 52 554 59 619 z"},"g":{"x_min":0,"x_max":500,"ha":500,"o":"m 158 250 q 158 192 179 162 q 200 131 245 131 q 265 131 282 136 q 300 141 314 149 l 314 375 q 300 378 289 379 q 278 380 266 380 q 158 380 158 250 z m 438 57 q 438 -58 382 -113 q 327 -168 204 -168 q 160 -168 120 -159 q 79 -150 42 -138 l 65 -34 q 94 -45 126 -54 q 158 -64 206 -64 q 238 -64 259 -56 q 280 -49 292 -36 q 304 -23 309 -6 q 314 12 314 32 l 314 51 q 288 41 266 36 q 245 31 220 31 q 128 31 80 89 q 33 147 33 250 q 33 366 97 423 q 161 480 271 480 q 348 480 438 455 z"},"j":{"x_min":0,"x_max":500,"ha":500,"o":"m 400 31 q 400 -26 386 -64 q 372 -103 348 -126 q 323 -150 290 -160 q 256 -170 217 -170 q 169 -170 128 -158 q 87 -146 49 -127 l 87 -23 q 112 -37 148 -50 q 183 -62 212 -62 q 243 -62 260 -44 q 277 -25 277 25 l 277 368 l 87 368 l 87 470 l 400 470 z m 385 605 q 385 569 362 548 q 339 527 307 527 q 275 527 252 548 q 230 569 230 605 q 230 642 252 663 q 275 684 307 684 q 339 684 362 663 q 385 642 385 605 z"},"i":{"x_min":0,"x_max":500,"ha":500,"o":"m 284 605 q 284 569 261 548 q 238 527 206 527 q 174 527 152 548 q 129 569 129 605 q 129 642 152 663 q 174 684 206 684 q 238 684 261 663 q 284 642 284 605 z m 467 20 q 429 2 396 -4 q 362 -11 334 -11 q 286 -11 254 3 q 221 17 202 44 q 182 70 174 108 q 166 146 166 195 l 166 368 l 36 368 l 36 470 l 289 470 l 289 179 q 289 137 304 116 q 320 96 356 96 q 373 96 397 100 q 421 105 451 119 z"},"y":{"x_min":0,"x_max":500,"ha":500,"o":"m 472 470 q 453 404 436 340 q 418 277 399 216 q 380 156 358 98 q 337 40 312 -15 q 293 -55 274 -84 q 256 -113 234 -132 q 211 -150 184 -159 q 156 -168 119 -168 q 88 -168 62 -163 q 37 -158 20 -150 l 43 -47 q 63 -56 78 -60 q 94 -63 112 -63 q 148 -63 170 -39 q 192 -15 205 18 q 161 106 117 220 q 73 333 37 470 l 165 470 q 174 433 186 391 q 197 349 210 307 q 223 265 238 224 q 252 184 267 149 q 277 184 288 224 q 299 265 309 306 q 319 348 328 390 q 338 432 346 470 z"},"@":{"x_min":0,"x_max":500,"ha":500,"o":"m 468 55 q 441 44 406 38 q 370 33 344 33 q 306 33 274 44 q 241 56 217 80 q 193 105 180 144 q 166 184 166 241 q 166 283 174 320 q 181 357 199 384 q 217 412 246 428 q 274 444 316 444 q 335 444 363 439 l 363 455 q 363 493 339 520 q 315 546 269 546 q 236 546 206 532 q 177 518 156 483 q 134 448 122 390 q 109 331 109 242 q 109 172 120 118 q 130 64 156 28 q 181 -9 224 -28 q 266 -47 329 -47 q 376 -47 403 -42 q 430 -37 438 -34 l 449 -121 q 432 -125 418 -128 q 404 -130 390 -132 q 376 -133 362 -134 q 347 -135 329 -135 q 263 -135 206 -117 q 149 -99 108 -54 q 66 -10 42 64 q 18 137 18 248 q 18 356 38 430 q 59 503 94 548 q 129 594 174 614 q 219 633 269 633 q 310 633 346 620 q 382 608 409 581 q 436 554 452 510 q 468 467 468 405 z m 271 247 q 271 228 274 208 q 276 188 283 172 q 290 156 302 146 q 315 135 335 135 q 348 135 363 138 l 363 338 q 355 340 348 341 q 341 342 334 342 q 315 342 303 334 q 291 325 284 312 q 277 298 274 281 q 271 264 271 247 z"},".":{"x_min":0,"x_max":500,"ha":500,"o":"m 340 79 q 340 35 313 12 q 286 -11 251 -11 q 233 -11 217 -5 q 201 1 188 12 q 176 24 168 40 q 161 57 161 79 q 161 100 168 116 q 176 133 188 144 q 201 155 217 161 q 233 167 251 167 q 286 167 313 144 q 340 121 340 79 z"},"p":{"x_min":0,"x_max":500,"ha":500,"o":"m 344 231 q 344 294 319 334 q 294 375 243 375 q 229 375 213 374 q 197 372 186 371 l 186 113 q 198 105 218 100 q 238 95 258 95 q 302 95 323 130 q 344 166 344 231 z m 469 235 q 469 181 457 136 q 445 90 422 58 q 399 25 364 7 q 329 -11 283 -11 q 236 -11 186 12 l 186 -165 l 63 -165 l 63 455 q 97 466 146 473 q 196 480 244 480 q 353 480 411 414 q 469 348 469 235 z"},"X":{"x_min":0,"x_max":500,"ha":500,"o":"m 356 0 q 337 51 310 113 q 282 175 252 237 q 223 178 194 114 q 165 51 144 0 l 11 0 q 21 27 40 65 q 60 103 84 147 q 107 191 133 238 q 159 284 183 327 l 21 619 l 154 619 l 252 421 l 355 619 l 479 619 l 321 330 q 348 287 374 240 q 400 193 422 148 q 445 104 462 66 q 479 27 489 0 z"},"*":{"x_min":0,"x_max":500,"ha":500,"o":"m 252 374 q 249 362 243 345 q 237 328 230 311 q 224 294 216 279 q 209 264 202 254 l 183 229 l 89 296 l 108 321 q 115 331 128 343 q 140 355 154 367 q 167 379 181 390 q 195 400 205 407 q 192 407 174 407 q 157 407 139 408 q 121 410 104 413 q 87 416 76 420 l 46 430 l 83 539 l 113 530 q 124 526 139 518 q 154 509 169 499 q 184 489 198 479 q 213 469 223 461 q 219 473 214 490 q 209 506 204 524 q 200 542 197 559 q 194 576 194 588 l 194 619 l 310 619 l 310 588 q 310 576 307 559 q 304 542 300 524 q 295 506 290 490 q 284 473 280 461 q 290 468 305 478 q 320 488 336 498 q 351 507 366 515 q 381 523 393 527 l 422 537 l 458 426 l 428 417 q 416 413 399 411 q 382 409 364 408 q 346 406 328 406 q 311 406 298 406 q 309 399 323 388 q 337 378 351 366 q 365 355 377 343 q 389 331 396 321 l 415 296 l 321 228 l 303 253 q 296 263 288 278 q 281 293 274 310 q 267 328 262 344 q 256 361 252 374 z"},"Y":{"x_min":0,"x_max":500,"ha":500,"o":"m 254 336 q 265 359 280 394 q 294 429 308 468 q 323 507 336 547 q 350 587 361 619 l 488 619 q 469 568 450 520 q 431 472 410 425 q 389 378 365 332 q 341 285 313 236 l 313 0 l 189 0 l 189 235 q 134 332 92 424 q 51 517 13 619 l 145 619 q 168 547 196 472 q 224 398 254 336 z"},"c":{"x_min":0,"x_max":500,"ha":500,"o":"m 44 235 q 44 286 60 331 q 76 376 109 410 q 142 443 192 462 q 243 482 313 482 q 355 482 389 476 q 423 470 458 456 l 431 357 q 411 364 386 370 q 362 375 324 375 q 280 375 250 364 q 221 354 203 336 q 185 317 177 291 q 169 265 169 235 q 169 170 206 133 q 242 96 330 96 q 359 96 390 100 q 422 104 448 113 l 466 12 q 440 2 403 -4 q 366 -11 316 -11 q 244 -11 192 8 q 141 27 108 60 q 75 93 60 138 q 44 183 44 235 z"},"!":{"x_min":0,"x_max":500,"ha":500,"o":"m 321 455 q 321 419 320 390 q 318 362 316 336 q 313 309 310 283 q 306 257 302 225 l 200 225 q 195 257 192 284 q 188 310 185 336 q 182 362 180 390 q 179 419 179 455 l 179 619 l 321 619 z m 333 71 q 333 32 308 10 q 282 -12 250 -12 q 218 -12 192 10 q 167 32 167 71 q 167 109 192 131 q 218 153 250 153 q 282 153 308 131 q 333 109 333 71 z"},"/":{"x_min":0,"x_max":500,"ha":500,"o":"m 175 -165 l 47 -165 l 327 699 l 453 699 z"},"[":{"x_min":0,"x_max":500,"ha":500,"o":"m 113 699 l 390 699 l 390 603 l 230 603 l 230 -69 l 390 -69 l 390 -165 l 113 -165 z"},"6":{"x_min":0,"x_max":500,"ha":500,"o":"m 241 294 q 222 294 202 290 q 182 286 169 279 q 168 270 168 261 q 167 252 167 242 q 167 213 171 186 q 175 160 185 139 q 195 118 212 106 q 230 93 256 93 q 277 93 292 103 q 307 113 316 128 q 326 143 330 161 q 335 179 335 196 q 335 243 314 268 q 293 294 241 294 z m 257 396 q 311 396 348 380 q 386 364 410 337 q 434 310 444 274 q 455 238 455 198 q 455 162 444 125 q 432 88 408 57 q 384 26 347 6 q 310 -13 259 -13 q 155 -13 100 52 q 46 116 46 253 q 46 343 72 412 q 99 481 148 528 q 197 575 266 599 q 335 623 419 623 l 426 518 q 386 517 348 510 q 310 503 278 486 q 246 470 222 444 q 199 418 188 379 q 207 387 225 392 q 243 396 257 396 z"},"r":{"x_min":0,"x_max":500,"ha":500,"o":"m 437 345 q 425 348 408 351 q 392 354 375 356 q 358 359 342 360 q 326 361 315 361 q 289 361 264 358 q 239 356 213 349 l 213 0 l 89 0 l 89 439 q 138 457 190 468 q 241 479 310 479 q 320 479 338 478 q 357 477 378 474 q 399 472 420 468 q 442 465 459 459 z"},"2":{"x_min":0,"x_max":500,"ha":500,"o":"m 434 456 q 434 424 422 394 q 410 365 390 337 q 370 309 345 283 q 320 257 294 233 q 281 221 264 204 q 247 188 232 170 q 217 153 206 135 q 196 117 196 102 l 462 102 l 462 0 l 58 0 q 55 10 56 25 q 56 40 56 46 q 56 96 74 138 q 93 180 122 216 q 150 251 182 282 q 215 312 244 340 q 272 368 290 394 q 309 420 309 447 q 309 485 286 506 q 263 526 228 526 q 199 526 167 512 q 135 498 104 465 l 43 551 q 83 593 136 613 q 188 633 240 633 q 278 633 313 622 q 348 611 375 589 q 402 567 418 534 q 434 500 434 456 z"},"{":{"x_min":0,"x_max":500,"ha":500,"o":"m 187 266 q 241 256 264 222 q 288 188 288 124 l 288 11 q 288 -31 300 -50 q 312 -69 344 -69 l 437 -69 l 437 -165 l 333 -165 q 243 -165 208 -126 q 174 -87 174 -13 l 174 134 q 174 176 161 198 q 148 219 117 219 l 63 219 l 63 315 l 117 315 q 148 315 161 336 q 174 358 174 399 l 174 547 q 174 621 208 660 q 243 699 333 699 l 437 699 l 437 603 l 344 603 q 312 603 300 584 q 288 566 288 523 l 288 410 q 288 346 264 312 q 241 278 187 266 z"},"9":{"x_min":0,"x_max":500,"ha":500,"o":"m 261 329 q 280 329 301 333 q 322 337 335 344 q 336 352 336 364 q 337 375 337 386 q 337 411 332 436 q 328 462 318 483 q 307 504 290 517 q 272 530 246 530 q 224 530 208 522 q 193 513 184 499 q 174 485 170 466 q 165 447 165 426 q 165 379 187 354 q 209 329 261 329 z m 245 227 q 191 227 153 242 q 115 258 91 285 q 67 312 56 348 q 45 383 45 424 q 45 460 58 498 q 70 535 94 566 q 119 596 156 616 q 193 635 243 635 q 347 635 402 565 q 457 495 457 370 q 457 280 431 210 q 405 141 356 94 q 308 47 240 22 q 171 -2 87 -2 l 83 104 q 163 105 226 138 q 289 172 315 244 q 276 227 245 227 z"}," ":{"x_min":0,"x_max":500,"ha":500,"o":""},"I":{"x_min":0,"x_max":500,"ha":500,"o":"m 54 0 l 54 102 l 189 102 l 189 517 l 54 517 l 54 619 l 447 619 l 447 517 l 313 517 l 313 102 l 447 102 l 447 0 z"},"H":{"x_min":0,"x_max":500,"ha":500,"o":"m 455 619 l 455 0 l 332 0 l 332 273 l 168 273 l 168 0 l 45 0 l 45 619 l 168 619 l 168 375 l 332 375 l 332 619 z"},"4":{"x_min":0,"x_max":500,"ha":500,"o":"m 285 465 q 267 442 248 416 q 229 390 210 362 q 192 333 175 304 q 158 275 145 247 l 285 247 z m 408 619 l 408 247 l 475 247 l 475 146 l 408 146 l 408 0 l 285 0 l 285 146 l 27 146 l 27 236 q 46 275 76 324 q 106 374 142 426 q 178 478 218 528 q 258 579 298 619 z"},"~":{"x_min":0,"x_max":500,"ha":500,"o":"m 345 171 q 318 171 294 182 q 271 192 249 205 q 227 218 206 228 q 186 239 167 239 q 159 239 152 237 q 144 235 137 228 q 130 222 124 209 q 118 196 112 174 l 21 199 q 25 224 35 252 q 45 279 62 302 q 78 325 103 340 q 128 356 163 356 q 189 356 212 346 q 236 335 258 322 q 280 309 300 298 q 320 288 340 288 q 348 288 356 290 q 363 292 370 299 q 377 306 384 319 q 390 332 396 354 l 487 329 q 482 304 472 276 q 463 249 446 226 q 429 202 404 186 q 380 171 345 171 z"},"D":{"x_min":0,"x_max":500,"ha":500,"o":"m 177 100 q 182 99 188 99 q 194 99 199 99 q 241 99 270 115 q 298 131 316 159 q 333 187 340 226 q 348 264 348 310 q 348 350 342 388 q 336 426 321 455 q 306 484 280 502 q 254 519 213 519 q 205 519 195 518 q 185 518 177 516 z m 473 310 q 473 224 452 164 q 430 103 392 65 q 354 27 302 10 q 249 -8 186 -8 q 153 -8 122 -4 q 90 -1 54 7 l 54 611 q 96 620 133 623 q 170 626 202 626 q 263 626 314 608 q 364 590 399 552 q 434 513 454 454 q 473 394 473 310 z"},"^":{"x_min":0,"x_max":500,"ha":500,"o":"m 491 309 l 380 255 l 254 473 l 128 255 l 16 309 l 201 619 l 306 619 z"},"0":{"x_min":0,"x_max":500,"ha":500,"o":"m 465 311 q 465 147 410 67 q 355 -13 250 -13 q 145 -13 90 67 q 35 147 35 311 q 35 473 91 553 q 147 633 250 633 q 355 633 410 554 q 465 474 465 311 z m 354 311 q 354 417 328 472 q 301 528 250 528 q 200 528 173 472 q 146 417 146 311 q 146 204 173 148 q 200 93 250 93 q 301 93 328 148 q 354 204 354 311 z m 306 321 q 306 294 290 274 q 275 255 251 255 q 225 255 210 274 q 195 294 195 321 q 195 348 210 368 q 225 388 251 388 q 275 388 290 368 q 306 348 306 321 z"},"F":{"x_min":0,"x_max":500,"ha":500,"o":"m 63 0 l 63 619 l 442 619 l 442 517 l 186 517 l 186 367 l 410 367 l 410 265 l 186 265 l 186 0 z"},"`":{"x_min":0,"x_max":500,"ha":500,"o":"m 213 691 l 371 580 l 326 513 l 152 597 z"},"k":{"x_min":0,"x_max":500,"ha":500,"o":"m 187 284 q 205 305 224 328 q 242 352 260 377 q 277 402 293 426 q 309 449 321 470 l 469 470 q 451 447 428 420 q 405 393 380 365 q 356 337 332 311 q 307 285 287 263 q 312 239 341 206 q 370 172 398 136 q 426 100 450 64 q 473 28 487 0 l 346 0 q 334 25 314 56 q 295 88 273 118 q 251 149 228 176 q 206 204 187 222 l 187 0 l 63 0 l 63 673 l 187 694 z"},"u":{"x_min":0,"x_max":500,"ha":500,"o":"m 438 16 q 404 7 356 -2 q 307 -11 250 -11 q 192 -11 155 5 q 118 21 96 50 q 75 80 67 120 q 59 160 59 208 l 59 470 l 182 470 l 182 224 q 182 159 198 128 q 213 96 258 96 q 286 96 314 101 l 314 470 l 438 470 z"},"]":{"x_min":0,"x_max":500,"ha":500,"o":"m 387 -165 l 109 -165 l 109 -69 l 269 -69 l 269 603 l 109 603 l 109 699 l 387 699 z"},"U":{"x_min":0,"x_max":500,"ha":500,"o":"m 248 -13 q 188 -13 148 4 q 107 20 83 51 q 59 82 49 126 q 39 170 39 224 l 39 619 l 163 619 l 163 232 q 163 193 167 166 q 171 140 180 124 q 190 108 207 101 q 224 94 250 94 q 276 94 293 101 q 310 108 320 124 q 330 141 334 168 q 338 194 338 233 l 338 619 l 461 619 l 461 224 q 461 170 451 126 q 441 82 416 51 q 391 20 350 4 q 309 -13 248 -13 z"},"o":{"x_min":0,"x_max":500,"ha":500,"o":"m 472 236 q 472 180 456 134 q 440 89 411 56 q 382 23 342 5 q 301 -13 251 -13 q 201 -13 160 5 q 120 23 90 56 q 61 89 45 134 q 29 180 29 236 q 29 291 46 336 q 62 382 92 414 q 121 447 162 464 q 203 482 251 482 q 300 482 340 464 q 381 447 410 414 q 440 382 456 336 q 472 291 472 236 z m 154 235 q 154 172 176 133 q 199 94 249 94 q 297 94 322 133 q 346 172 346 235 q 346 298 324 336 q 301 375 251 375 q 203 375 178 336 q 154 298 154 235 z"},"N":{"x_min":0,"x_max":500,"ha":500,"o":"m 355 0 q 313 103 264 206 q 214 308 157 411 l 157 0 l 46 0 l 46 619 l 145 619 q 173 575 201 524 q 229 472 256 421 q 282 370 304 322 q 327 274 343 238 l 343 619 l 454 619 l 454 0 z"},"+":{"x_min":0,"x_max":500,"ha":500,"o":"m 40 313 l 197 313 l 197 487 l 303 487 l 303 313 l 460 313 l 460 212 l 303 212 l 303 38 l 197 38 l 197 212 l 40 212 z"},"G":{"x_min":0,"x_max":500,"ha":500,"o":"m 312 526 q 268 526 238 510 q 208 494 188 466 q 169 437 160 398 q 152 358 152 310 q 152 199 187 146 q 222 94 290 94 q 301 94 314 95 q 327 96 338 98 l 338 324 l 461 324 l 461 15 q 439 7 392 -3 q 346 -13 280 -13 q 222 -13 176 8 q 129 28 96 68 q 63 109 45 170 q 27 230 27 310 q 27 389 48 450 q 69 510 105 551 q 141 592 190 612 q 239 633 295 633 q 331 633 360 628 q 388 622 409 615 q 430 608 444 600 q 457 592 464 588 l 432 490 q 410 504 378 515 q 346 526 312 526 z"},"q":{"x_min":0,"x_max":500,"ha":500,"o":"m 156 231 q 156 166 178 130 q 199 95 243 95 q 264 95 282 100 q 301 105 315 113 l 315 371 q 306 372 290 374 q 275 375 258 375 q 207 375 182 334 q 156 294 156 231 z m 31 235 q 31 289 46 334 q 61 380 90 412 q 118 444 160 462 q 203 480 257 480 q 280 480 306 478 q 331 476 355 472 q 379 469 400 464 q 422 460 438 455 l 438 -165 l 315 -165 l 315 13 q 292 2 266 -4 q 241 -11 218 -11 q 172 -11 137 6 q 102 24 78 56 q 55 88 43 134 q 31 179 31 235 z"},"d":{"x_min":0,"x_max":500,"ha":500,"o":"m 153 238 q 153 175 176 135 q 200 95 252 95 q 267 95 280 96 q 293 97 307 99 l 307 355 q 293 363 275 368 q 257 374 237 374 q 193 374 173 339 q 153 304 153 238 z m 430 14 q 396 3 347 -4 q 298 -11 251 -11 q 141 -11 84 54 q 28 119 28 232 q 28 347 76 414 q 123 480 216 480 q 241 480 265 474 q 289 469 307 459 l 307 673 l 430 694 z"},"1":{"x_min":0,"x_max":500,"ha":500,"o":"m 213 102 l 213 448 q 185 428 149 412 q 113 397 88 388 l 48 490 q 72 499 100 513 q 128 527 156 544 q 184 561 209 580 q 234 599 252 619 l 336 619 l 336 102 l 459 102 l 459 0 l 83 0 l 83 102 z"},"5":{"x_min":0,"x_max":500,"ha":500,"o":"m 321 182 q 321 208 312 230 q 304 251 278 266 q 253 282 206 290 q 159 299 83 299 q 93 383 99 464 q 105 544 108 619 l 424 619 l 424 517 l 211 517 q 209 485 206 450 q 203 415 201 393 q 325 385 386 333 q 447 281 447 187 q 447 144 432 108 q 417 71 386 44 q 355 17 309 2 q 263 -13 202 -13 q 178 -13 153 -10 q 128 -7 105 -2 q 82 2 64 8 q 45 14 35 19 l 60 121 q 82 110 116 101 q 150 92 201 92 q 237 92 260 100 q 284 108 298 120 q 311 133 316 149 q 321 165 321 182 z"}}}
